<?xml version="1.0" encoding="utf-8"?>
<!-- Generator: Adobe Illustrator 15.1.0, SVG Export Plug-In . SVG Version: 6.00 Build 0)  -->
<!DOCTYPE svg PUBLIC "-//W3C//DTD SVG 1.1//EN" "http://www.w3.org/Graphics/SVG/1.1/DTD/svg11.dtd">
<svg version="1.1" id="Layer_1" xmlns="http://www.w3.org/2000/svg" xmlns:xlink="http://www.w3.org/1999/xlink" x="0px" y="0px"
	 width="600px" height="231px" viewBox="-181.016 0 600 231" enable-background="new -181.016 0 600 231" xml:space="preserve">
<g enable-background="new    ">
	<path d="M100.575,25.669c-2.679,0-4.813-0.891-6.403-2.669c-1.589-1.778-2.385-4.093-2.385-6.938c0-3.023,0.816-5.442,2.451-7.263
		c1.635-1.818,3.866-2.728,6.695-2.728c2.555,0,4.624,0.875,6.204,2.623c1.582,1.75,2.373,4.042,2.373,6.879
		c0,3.137-0.811,5.604-2.432,7.401C105.457,24.771,103.288,25.669,100.575,25.669z M100.707,7.26c-2.203,0-4.015,0.797-5.439,2.392
		c-1.424,1.596-2.134,3.683-2.134,6.265c0,2.608,0.674,4.686,2.023,6.231c1.348,1.548,3.146,2.32,5.392,2.32
		c2.344,0,4.198-0.764,5.563-2.293c1.366-1.528,2.048-3.659,2.048-6.389c0-2.678-0.667-4.768-2.002-6.271
		C104.824,8.012,103.006,7.26,100.707,7.26z"/>
	<path d="M118.547,25.669c-1.973,0-3.535-0.65-4.685-1.949c-1.15-1.299-1.725-2.989-1.725-5.068c0-2.247,0.602-4.005,1.804-5.274
		c1.203-1.269,2.786-1.904,4.752-1.904c1.929,0,3.454,0.631,4.573,1.891c1.118,1.26,1.68,3.004,1.68,5.232
		c0,2.105-0.572,3.811-1.714,5.114C122.091,25.016,120.532,25.669,118.547,25.669z M118.641,12.586
		c-1.596,0-2.866,0.537-3.813,1.612c-0.947,1.075-1.421,2.568-1.421,4.479c0,1.772,0.463,3.194,1.388,4.27
		c0.924,1.075,2.189,1.611,3.792,1.611c1.629,0,2.885-0.53,3.766-1.586c0.882-1.057,1.322-2.525,1.322-4.401
		c0-1.929-0.438-3.411-1.316-4.441C121.484,13.1,120.244,12.586,118.641,12.586z"/>
	<path d="M129.572,22.934h-0.053v8.63h-1.217V11.806h1.217v2.788h0.053c0.484-0.996,1.177-1.764,2.08-2.307
		c0.904-0.54,1.897-0.812,2.981-0.812c1.718,0,3.059,0.595,4.023,1.779c0.966,1.185,1.447,2.794,1.447,4.83
		c0,2.265-0.552,4.096-1.659,5.49c-1.105,1.398-2.566,2.096-4.381,2.096C132.037,25.669,130.539,24.759,129.572,22.934z
		 M129.519,17.899v1.705c0,1.356,0.426,2.523,1.283,3.495c0.854,0.974,1.977,1.461,3.369,1.461c1.384,0,2.506-0.592,3.369-1.778
		c0.863-1.184,1.295-2.742,1.295-4.671c0-1.691-0.396-3.035-1.189-4.03c-0.793-0.996-1.851-1.494-3.172-1.494
		c-1.576,0-2.796,0.529-3.66,1.587C129.949,15.229,129.519,16.471,129.519,17.899z"/>
	<path d="M142.759,24.745v-1.468c0.459,0.397,1.015,0.71,1.665,0.938c0.652,0.229,1.216,0.344,1.691,0.344
		c2.124,0,3.186-0.868,3.186-2.603c0-0.599-0.233-1.11-0.7-1.534c-0.468-0.423-1.226-0.858-2.273-1.308
		c-1.295-0.564-2.205-1.147-2.73-1.752c-0.523-0.601-0.785-1.336-0.785-2.2c0-1.101,0.42-1.991,1.263-2.669
		c0.841-0.678,1.88-1.018,3.113-1.018c1.161,0,2.159,0.238,2.985,0.714v1.375c-1.004-0.652-2.043-0.977-3.119-0.977
		c-0.889,0-1.607,0.23-2.154,0.695c-0.546,0.461-0.818,1.063-0.818,1.803c0,0.644,0.17,1.166,0.515,1.566
		c0.345,0.403,1.101,0.861,2.272,1.382c1.412,0.634,2.38,1.222,2.91,1.763c0.528,0.543,0.793,1.263,0.793,2.162
		c0,1.076-0.406,1.963-1.212,2.663c-0.806,0.699-1.917,1.05-3.338,1.05C144.721,25.669,143.631,25.361,142.759,24.745z"/>
	<path d="M155.646,25.578c-0.299,0-0.549-0.104-0.751-0.311c-0.204-0.207-0.306-0.46-0.306-0.76c0-0.308,0.102-0.562,0.306-0.759
		c0.202-0.2,0.452-0.297,0.751-0.297c0.3,0,0.555,0.098,0.767,0.297c0.214,0.197,0.317,0.452,0.317,0.759
		c0,0.299-0.104,0.553-0.317,0.76C156.201,25.472,155.946,25.578,155.646,25.578z M156.188,20.012h-1.136l-0.135-13.626h1.403
		L156.188,20.012z"/>
</g>
<g enable-background="new    ">
	<path d="M-40.531,54.454v9.861h-0.72v-9.861h-3.039v-0.667h6.798v0.667H-40.531z"/>
	<path d="M-30.737,64.314v-4.508c0-0.892-0.161-1.543-0.484-1.956c-0.324-0.414-0.828-0.621-1.513-0.621
		c-0.646,0-1.213,0.252-1.703,0.756c-0.491,0.504-0.734,1.226-0.734,2.166v4.164h-0.675v-11.13h0.675v4.963h0.03
		c0.592-1.024,1.455-1.536,2.585-1.536c0.813,0,1.432,0.262,1.857,0.785c0.426,0.523,0.64,1.275,0.64,2.254v4.663H-30.737z"/>
	<path d="M-27.637,60.585c0,1.033,0.239,1.84,0.716,2.423c0.476,0.582,1.132,0.874,1.963,0.874c0.842,0,1.665-0.312,2.468-0.933
		v0.72c-0.779,0.553-1.646,0.83-2.605,0.83c-0.97,0-1.753-0.348-2.349-1.042c-0.595-0.694-0.896-1.677-0.896-2.944
		c0-1.096,0.312-2.021,0.937-2.773c0.624-0.75,1.436-1.125,2.435-1.125c0.936,0,1.653,0.328,2.152,0.983
		c0.5,0.656,0.749,1.552,0.749,2.688v0.3H-27.637z M-22.778,59.968c-0.03-0.865-0.237-1.537-0.624-2.019
		c-0.386-0.481-0.92-0.72-1.6-0.72c-0.705,0-1.289,0.236-1.752,0.71c-0.463,0.47-0.747,1.148-0.855,2.029H-22.778z"/>
	<path d="M-16.661,57.501c-0.226-0.16-0.49-0.242-0.792-0.242c-0.592,0-1.089,0.305-1.49,0.917
		c-0.401,0.612-0.602,1.479-0.602,2.605v3.532h-0.659v-7.519h0.659v1.666h0.03c0.172-0.573,0.442-1.018,0.815-1.336
		c0.373-0.319,0.804-0.478,1.292-0.478c0.279,0,0.529,0.044,0.748,0.133L-16.661,57.501L-16.661,57.501z"/>
	<path d="M-15.384,60.585c0,1.033,0.239,1.84,0.716,2.423c0.476,0.582,1.132,0.874,1.964,0.874c0.842,0,1.665-0.312,2.467-0.933
		v0.72c-0.778,0.553-1.646,0.83-2.605,0.83c-0.97,0-1.753-0.348-2.349-1.042s-0.896-1.677-0.896-2.944
		c0-1.096,0.312-2.021,0.937-2.773c0.624-0.75,1.435-1.125,2.434-1.125c0.936,0,1.653,0.328,2.152,0.983
		c0.5,0.656,0.75,1.552,0.75,2.688v0.3H-15.384z M-10.523,59.968c-0.03-0.865-0.237-1.537-0.624-2.019
		c-0.386-0.481-0.92-0.72-1.6-0.72c-0.705,0-1.289,0.236-1.752,0.71c-0.462,0.47-0.746,1.148-0.855,2.029H-10.523z"/>
	<path d="M2.538,64.314H1.907L0.27,58.645c-0.044-0.156-0.083-0.367-0.118-0.631H0.116c-0.009,0.113-0.059,0.319-0.147,0.617
		l-1.835,5.682H-2.5l-2.269-7.519h0.749l1.748,5.999c0.043,0.156,0.078,0.366,0.102,0.631h0.059c0.009-0.144,0.057-0.352,0.14-0.631
		l1.909-5.999h0.463l1.704,5.999c0.04,0.143,0.074,0.352,0.103,0.631h0.059c0-0.144,0.042-0.352,0.125-0.631l1.785-5.999h0.697
		L2.538,64.314z"/>
	<path d="M10.836,64.314v-1.505h-0.03c-0.241,0.515-0.59,0.924-1.046,1.229c-0.458,0.307-0.965,0.46-1.523,0.46
		c-0.714,0-1.28-0.201-1.696-0.602c-0.417-0.4-0.625-0.908-0.625-1.521c0-1.311,0.869-2.103,2.606-2.378l2.313-0.345
		c0-1.615-0.607-2.422-1.821-2.422c-0.827,0-1.631,0.334-2.415,0.999v-0.815c0.28-0.22,0.658-0.408,1.134-0.565
		c0.477-0.158,0.927-0.234,1.348-0.234c0.773,0,1.371,0.238,1.795,0.719c0.425,0.482,0.635,1.178,0.635,2.094v4.89h-0.674V64.314z
		 M8.765,60.57c-0.788,0.112-1.342,0.295-1.66,0.546c-0.317,0.252-0.477,0.661-0.477,1.23c0,0.445,0.149,0.812,0.443,1.101
		c0.295,0.289,0.709,0.433,1.237,0.433c0.726,0,1.327-0.269,1.806-0.803c0.48-0.537,0.721-1.227,0.721-2.075v-0.734L8.765,60.57z"/>
	<path d="M13.383,63.985V63.17c0.255,0.22,0.563,0.394,0.925,0.521c0.361,0.128,0.675,0.191,0.94,0.191
		c1.181,0,1.77-0.481,1.77-1.447c0-0.333-0.129-0.616-0.389-0.851c-0.26-0.234-0.681-0.477-1.263-0.727
		c-0.72-0.312-1.224-0.637-1.516-0.973s-0.438-0.742-0.438-1.221c0-0.612,0.234-1.105,0.701-1.482
		c0.468-0.377,1.043-0.565,1.729-0.565c0.647,0,1.199,0.132,1.66,0.396v0.764c-0.558-0.362-1.135-0.543-1.732-0.543
		c-0.495,0-0.894,0.127-1.197,0.387c-0.303,0.255-0.456,0.59-0.456,1.001c0,0.356,0.095,0.648,0.286,0.869
		c0.191,0.223,0.612,0.479,1.263,0.769c0.784,0.352,1.322,0.68,1.615,0.979c0.292,0.303,0.44,0.703,0.44,1.202
		c0,0.597-0.224,1.089-0.672,1.479c-0.448,0.388-1.066,0.583-1.854,0.583C14.472,64.498,13.869,64.327,13.383,63.985z"/>
	<path d="M28.222,64.314v-1.505h-0.03c-0.241,0.515-0.59,0.924-1.046,1.229c-0.458,0.307-0.965,0.46-1.523,0.46
		c-0.714,0-1.28-0.201-1.696-0.602c-0.416-0.4-0.624-0.908-0.624-1.521c0-1.311,0.869-2.103,2.605-2.378l2.313-0.345
		c0-1.615-0.607-2.422-1.821-2.422c-0.828,0-1.631,0.334-2.415,0.999v-0.815c0.28-0.22,0.658-0.408,1.134-0.565
		c0.477-0.158,0.926-0.234,1.347-0.234c0.773,0,1.372,0.238,1.795,0.719c0.424,0.482,0.635,1.178,0.635,2.094v4.89h-0.674V64.314z
		 M26.152,60.57c-0.788,0.112-1.342,0.295-1.66,0.546c-0.317,0.252-0.477,0.661-0.477,1.23c0,0.445,0.149,0.812,0.443,1.101
		c0.294,0.289,0.709,0.433,1.237,0.433c0.726,0,1.327-0.269,1.806-0.803c0.479-0.537,0.721-1.227,0.721-2.075v-0.734L26.152,60.57z"
		/>
	<path d="M35.983,62.979h-0.03v4.793h-0.675V56.795h0.675v1.549h0.03c0.269-0.554,0.656-0.979,1.156-1.282
		c0.501-0.3,1.054-0.452,1.656-0.452c0.955,0,1.699,0.33,2.236,0.989c0.535,0.658,0.805,1.551,0.805,2.682
		c0,1.259-0.307,2.275-0.922,3.05c-0.615,0.777-1.425,1.163-2.434,1.163C37.354,64.498,36.521,63.993,35.983,62.979z M35.953,60.18
		v0.948c0,0.753,0.238,1.401,0.713,1.941c0.475,0.542,1.1,0.812,1.872,0.812c0.769,0,1.393-0.33,1.872-0.989
		c0.479-0.658,0.72-1.523,0.72-2.595c0-0.94-0.219-1.686-0.66-2.239c-0.44-0.553-1.029-0.83-1.762-0.83
		c-0.876,0-1.555,0.292-2.034,0.881C36.194,58.698,35.953,59.388,35.953,60.18z"/>
	<path d="M47.246,57.501c-0.226-0.16-0.49-0.242-0.792-0.242c-0.592,0-1.088,0.305-1.49,0.917c-0.401,0.612-0.601,1.479-0.601,2.605
		v3.532h-0.66v-7.519h0.66v1.666h0.03c0.171-0.573,0.442-1.018,0.815-1.336c0.373-0.319,0.803-0.478,1.292-0.478
		c0.279,0,0.529,0.044,0.748,0.133v0.72H47.246z"/>
	<path d="M51.379,64.498c-1.096,0-1.963-0.36-2.603-1.083c-0.639-0.721-0.958-1.659-0.958-2.816c0-1.248,0.333-2.224,1.003-2.93
		c0.669-0.705,1.547-1.057,2.639-1.057c1.072,0,1.918,0.349,2.54,1.05c0.621,0.7,0.932,1.668,0.932,2.908
		c0,1.17-0.316,2.117-0.95,2.842C53.349,64.137,52.48,64.498,51.379,64.498z M51.431,57.229c-0.886,0-1.592,0.298-2.119,0.896
		c-0.525,0.598-0.789,1.426-0.789,2.488c0,0.983,0.257,1.774,0.771,2.371c0.514,0.597,1.217,0.897,2.106,0.897
		c0.906,0,1.603-0.294,2.094-0.882c0.49-0.588,0.733-1.403,0.733-2.445c0-1.072-0.244-1.895-0.731-2.468
		C53.009,57.515,52.321,57.229,51.431,57.229z"/>
	<path d="M57.502,62.979h-0.03v1.336h-0.675v-11.13h0.675v5.163h0.03c0.269-0.553,0.656-0.979,1.157-1.283
		c0.501-0.299,1.054-0.451,1.656-0.451c0.954,0,1.699,0.329,2.235,0.987c0.536,0.659,0.805,1.552,0.805,2.683
		c0,1.259-0.312,2.274-0.933,3.049C61.8,64.111,60.992,64.498,60,64.498C58.875,64.498,58.041,63.993,57.502,62.979z M57.475,60.18
		v0.948c0,0.753,0.237,1.401,0.712,1.941c0.475,0.542,1.099,0.812,1.872,0.812c0.769,0,1.393-0.33,1.872-0.989
		c0.479-0.658,0.721-1.523,0.721-2.595c0-0.94-0.22-1.686-0.66-2.239c-0.441-0.553-1.028-0.83-1.762-0.83
		c-0.877,0-1.555,0.292-2.035,0.881C57.715,58.698,57.475,59.388,57.475,60.18z"/>
	<path d="M65.22,64.314v-11.13h0.675v11.13H65.22z"/>
	<path d="M68.465,60.585c0,1.033,0.238,1.84,0.716,2.423c0.476,0.582,1.132,0.874,1.963,0.874c0.842,0,1.665-0.312,2.468-0.933v0.72
		c-0.779,0.553-1.647,0.83-2.606,0.83c-0.97,0-1.753-0.348-2.349-1.042c-0.596-0.694-0.896-1.677-0.896-2.944
		c0-1.096,0.312-2.021,0.937-2.773c0.624-0.75,1.436-1.125,2.434-1.125c0.936,0,1.653,0.328,2.152,0.983
		c0.499,0.656,0.749,1.552,0.749,2.688v0.3H68.465z M73.326,59.968c-0.03-0.865-0.238-1.537-0.625-2.019
		c-0.386-0.481-0.92-0.72-1.6-0.72c-0.706,0-1.289,0.236-1.752,0.71c-0.463,0.47-0.748,1.148-0.855,2.029H73.326z"/>
	<path d="M85.323,64.314v-4.523c0-0.944-0.149-1.607-0.443-1.989c-0.296-0.382-0.766-0.573-1.406-0.573
		c-0.593,0-1.104,0.253-1.535,0.764c-0.432,0.509-0.647,1.148-0.647,1.916v4.405h-0.674V59.74c0-1.673-0.637-2.511-1.91-2.511
		c-0.612,0-1.122,0.255-1.528,0.769c-0.406,0.511-0.61,1.172-0.61,1.984v4.332h-0.674v-7.519h0.674v1.249h0.03
		c0.524-0.955,1.291-1.432,2.298-1.432c0.549,0,1.017,0.156,1.406,0.474c0.389,0.314,0.652,0.73,0.79,1.244
		c0.234-0.543,0.571-0.966,1.009-1.267c0.439-0.3,0.914-0.452,1.429-0.452c1.645,0,2.467,1.019,2.467,3.055v4.647h-0.674V64.314z"/>
	<path d="M98.744,64.314h-0.631l-1.637-5.669c-0.044-0.156-0.083-0.367-0.118-0.631h-0.036c-0.009,0.113-0.059,0.319-0.147,0.617
		l-1.835,5.682h-0.632l-2.269-7.519h0.749l1.748,5.999c0.043,0.156,0.077,0.366,0.102,0.631h0.058
		c0.009-0.144,0.058-0.352,0.14-0.631l1.91-5.999h0.463l1.704,5.999c0.04,0.143,0.074,0.352,0.103,0.631h0.059
		c0-0.144,0.042-0.352,0.125-0.631l1.785-5.999h0.697L98.744,64.314z"/>
	<path d="M102.878,54.902c-0.147,0-0.277-0.054-0.39-0.16c-0.113-0.107-0.168-0.246-0.168-0.411c0-0.161,0.057-0.292,0.173-0.395
		c0.116-0.099,0.244-0.15,0.385-0.15c0.152,0,0.284,0.048,0.4,0.148c0.116,0.099,0.173,0.229,0.173,0.397
		c0,0.156-0.057,0.29-0.168,0.404C103.171,54.85,103.034,54.902,102.878,54.902z M102.547,64.314v-7.519h0.674v7.519H102.547z"/>
	<path d="M108.604,64.212c-0.352,0.165-0.683,0.25-0.991,0.25c-1.111,0-1.666-0.664-1.666-1.997v-5.05h-1.351v-0.617h1.351v-1.953
		c0.109-0.039,0.22-0.079,0.338-0.118c0.118-0.033,0.229-0.07,0.339-0.109v2.18h1.981v0.617h-1.981v4.964
		c0,0.519,0.082,0.894,0.247,1.127c0.164,0.231,0.442,0.347,0.832,0.347c0.28,0,0.581-0.091,0.904-0.272v0.631H108.604z"/>
	<path d="M115.206,64.314v-4.508c0-0.892-0.161-1.543-0.485-1.956c-0.323-0.414-0.827-0.621-1.513-0.621
		c-0.646,0-1.213,0.252-1.703,0.756c-0.491,0.504-0.734,1.226-0.734,2.166v4.164h-0.675v-11.13h0.675v4.963h0.03
		c0.593-1.024,1.455-1.536,2.585-1.536c0.813,0,1.431,0.262,1.856,0.785c0.426,0.523,0.639,1.275,0.639,2.254v4.663H115.206z"/>
	<path d="M125.236,64.212c-0.354,0.165-0.684,0.25-0.992,0.25c-1.111,0-1.666-0.664-1.666-1.997v-5.05h-1.35v-0.617h1.35v-1.953
		c0.107-0.039,0.219-0.079,0.338-0.118c0.118-0.033,0.23-0.07,0.339-0.109v2.18h1.981v0.617h-1.981v4.964
		c0,0.519,0.083,0.894,0.247,1.127c0.164,0.231,0.441,0.347,0.833,0.347c0.279,0,0.581-0.091,0.903-0.272v0.631H125.236z"/>
	<path d="M131.837,64.314v-4.508c0-0.892-0.162-1.543-0.484-1.956c-0.324-0.414-0.829-0.621-1.514-0.621
		c-0.647,0-1.215,0.252-1.704,0.756s-0.733,1.226-0.733,2.166v4.164h-0.675v-11.13h0.675v4.963h0.029
		c0.594-1.024,1.455-1.536,2.584-1.536c0.814,0,1.434,0.262,1.859,0.785c0.424,0.523,0.638,1.275,0.638,2.254v4.663H131.837z"/>
	<path d="M134.933,60.585c0,1.033,0.24,1.84,0.718,2.423c0.479,0.582,1.132,0.874,1.963,0.874c0.845,0,1.665-0.312,2.469-0.933v0.72
		c-0.78,0.553-1.646,0.83-2.606,0.83c-0.97,0-1.751-0.348-2.349-1.042c-0.595-0.694-0.897-1.677-0.897-2.944
		c0-1.096,0.314-2.021,0.938-2.773c0.625-0.75,1.436-1.125,2.435-1.125c0.935,0,1.65,0.328,2.149,0.983
		c0.5,0.656,0.75,1.552,0.75,2.688v0.3H134.933z M139.796,59.968c-0.031-0.865-0.238-1.537-0.626-2.019
		c-0.387-0.479-0.919-0.72-1.599-0.72c-0.707,0-1.288,0.236-1.751,0.71c-0.462,0.47-0.747,1.148-0.856,2.029H139.796z"/>
	<path d="M150.977,64.314v-1.505h-0.03c-0.24,0.515-0.59,0.924-1.045,1.229c-0.459,0.307-0.968,0.46-1.524,0.46
		c-0.716,0-1.28-0.201-1.698-0.602c-0.413-0.401-0.622-0.908-0.622-1.521c0-1.311,0.868-2.103,2.604-2.378l2.312-0.345
		c0-1.615-0.604-2.422-1.82-2.422c-0.825,0-1.63,0.334-2.413,0.999v-0.815c0.277-0.22,0.657-0.408,1.136-0.565
		c0.476-0.158,0.925-0.234,1.347-0.234c0.773,0,1.369,0.238,1.795,0.719c0.422,0.48,0.635,1.178,0.635,2.094v4.89h-0.675V64.314z
		 M148.906,60.57c-0.787,0.112-1.342,0.295-1.659,0.546c-0.318,0.252-0.479,0.661-0.479,1.23c0,0.445,0.149,0.812,0.446,1.101
		c0.294,0.289,0.707,0.433,1.236,0.433c0.724,0,1.328-0.269,1.807-0.803c0.479-0.537,0.72-1.227,0.72-2.075v-0.734L148.906,60.57z"
		/>
	<path d="M157.46,57.501c-0.225-0.16-0.489-0.242-0.792-0.242c-0.594,0-1.09,0.305-1.491,0.917c-0.4,0.612-0.6,1.479-0.6,2.605
		v3.532h-0.662v-7.519h0.662v1.666h0.029c0.17-0.573,0.443-1.018,0.814-1.336c0.371-0.319,0.804-0.478,1.291-0.478
		c0.279,0,0.53,0.044,0.748,0.133V57.501L157.46,57.501z"/>
	<path d="M162.511,64.212c-0.352,0.165-0.683,0.25-0.992,0.25c-1.109,0-1.664-0.664-1.664-1.997v-5.05h-1.352v-0.617h1.352v-1.953
		c0.107-0.039,0.219-0.079,0.338-0.118c0.117-0.033,0.229-0.07,0.337-0.109v2.18h1.982v0.617h-1.982v4.964
		c0,0.519,0.083,0.894,0.247,1.127c0.163,0.231,0.443,0.347,0.834,0.347c0.279,0,0.58-0.091,0.903-0.272v0.631H162.511z"/>
	<path d="M164.332,54.902c-0.147,0-0.277-0.054-0.389-0.16c-0.111-0.107-0.169-0.246-0.169-0.411c0-0.161,0.058-0.292,0.174-0.395
		c0.113-0.099,0.242-0.15,0.384-0.15c0.155,0,0.284,0.048,0.402,0.148c0.113,0.097,0.172,0.229,0.172,0.397
		c0,0.156-0.057,0.29-0.17,0.404C164.625,54.846,164.49,54.902,164.332,54.902z M164.001,64.314v-7.519h0.676v7.519H164.001z"/>
	<path d="M171.953,63.985c-0.559,0.343-1.223,0.514-1.998,0.514c-1.022,0-1.848-0.35-2.475-1.052
		c-0.625-0.704-0.939-1.623-0.939-2.757c0-1.195,0.353-2.172,1.058-2.934c0.706-0.761,1.61-1.141,2.718-1.141
		c0.573,0,1.128,0.117,1.665,0.352v0.764c-0.537-0.334-1.128-0.5-1.769-0.5c-0.883,0-1.598,0.317-2.146,0.951
		c-0.545,0.634-0.822,1.455-0.822,2.464c0,0.973,0.252,1.758,0.756,2.349c0.498,0.592,1.161,0.889,1.982,0.889
		c0.756,0,1.412-0.202,1.971-0.602V63.985L171.953,63.985z"/>
	<path d="M173.761,64.314v-11.13h0.674v11.13H173.761z"/>
	<path d="M177.004,60.585c0,1.033,0.239,1.84,0.718,2.423c0.479,0.582,1.133,0.874,1.963,0.874c0.846,0,1.665-0.312,2.469-0.933
		v0.72c-0.779,0.553-1.646,0.83-2.605,0.83c-0.971,0-1.752-0.348-2.348-1.042c-0.597-0.694-0.897-1.677-0.897-2.944
		c0-1.096,0.312-2.021,0.937-2.773c0.624-0.75,1.435-1.125,2.434-1.125c0.934,0,1.652,0.328,2.15,0.983
		c0.5,0.656,0.749,1.552,0.749,2.688v0.3H177.004z M181.865,59.968c-0.03-0.865-0.235-1.537-0.623-2.019
		c-0.389-0.479-0.92-0.72-1.602-0.72c-0.704,0-1.285,0.236-1.75,0.71c-0.463,0.47-0.746,1.148-0.855,2.029H181.865z"/>
	<path d="M189.259,62.979h-0.029v4.793h-0.676V56.795h0.676v1.549h0.029c0.27-0.554,0.654-0.979,1.156-1.282
		c0.502-0.3,1.053-0.452,1.657-0.452c0.954,0,1.7,0.33,2.235,0.989c0.535,0.658,0.803,1.551,0.803,2.682
		c0,1.259-0.307,2.275-0.921,3.05c-0.614,0.777-1.425,1.163-2.435,1.163C190.63,64.498,189.798,63.993,189.259,62.979z
		 M189.23,60.18v0.948c0,0.753,0.238,1.401,0.714,1.941c0.475,0.542,1.097,0.812,1.87,0.812c0.771,0,1.396-0.33,1.874-0.989
		c0.479-0.658,0.72-1.523,0.72-2.595c0-0.94-0.221-1.686-0.661-2.239s-1.028-0.83-1.762-0.83c-0.876,0-1.554,0.292-2.034,0.881
		C189.47,58.698,189.23,59.388,189.23,60.18z"/>
	<path d="M196.976,64.314v-11.13h0.676v11.13H196.976z"/>
	<path d="M200.221,60.585c0,1.033,0.239,1.84,0.716,2.423c0.479,0.582,1.133,0.874,1.963,0.874c0.845,0,1.666-0.312,2.469-0.933
		v0.72c-0.779,0.553-1.646,0.83-2.605,0.83c-0.97,0-1.75-0.348-2.348-1.042c-0.596-0.694-0.897-1.677-0.897-2.944
		c0-1.096,0.313-2.021,0.937-2.773c0.625-0.75,1.436-1.125,2.435-1.125c0.934,0,1.65,0.328,2.149,0.983
		c0.5,0.656,0.749,1.552,0.749,2.688v0.3H200.221z M205.083,59.968c-0.03-0.865-0.237-1.537-0.626-2.019
		c-0.385-0.479-0.919-0.72-1.599-0.72c-0.706,0-1.288,0.236-1.75,0.71c-0.463,0.47-0.747,1.148-0.856,2.029H205.083z"/>
	<path d="M212.144,64.314v-1.505h-0.03c-0.237,0.515-0.589,0.924-1.044,1.229c-0.46,0.307-0.967,0.46-1.525,0.46
		c-0.714,0-1.279-0.201-1.695-0.602c-0.415-0.401-0.625-0.908-0.625-1.521c0-1.311,0.869-2.103,2.606-2.378l2.313-0.345
		c0-1.615-0.605-2.422-1.822-2.422c-0.826,0-1.631,0.334-2.414,0.999v-0.815c0.279-0.22,0.658-0.408,1.135-0.565
		s0.928-0.234,1.348-0.234c0.774,0,1.371,0.238,1.794,0.719c0.423,0.48,0.636,1.178,0.636,2.094v4.89h-0.676V64.314z M210.074,60.57
		c-0.785,0.112-1.341,0.295-1.66,0.546c-0.318,0.252-0.477,0.661-0.477,1.23c0,0.445,0.15,0.812,0.445,1.101
		c0.295,0.289,0.71,0.433,1.236,0.433c0.725,0,1.328-0.269,1.805-0.803c0.481-0.537,0.721-1.227,0.721-2.075v-0.734L210.074,60.57z"
		/>
	<path d="M214.692,63.985V63.17c0.256,0.22,0.563,0.394,0.926,0.521c0.36,0.128,0.675,0.191,0.94,0.191
		c1.18,0,1.769-0.481,1.769-1.447c0-0.333-0.131-0.616-0.39-0.851c-0.258-0.234-0.681-0.477-1.263-0.727
		c-0.721-0.312-1.225-0.637-1.517-0.973c-0.293-0.335-0.438-0.742-0.438-1.221c0-0.612,0.233-1.105,0.703-1.482
		c0.467-0.377,1.043-0.565,1.727-0.565c0.646,0,1.2,0.132,1.66,0.396v0.764c-0.559-0.362-1.134-0.543-1.73-0.543
		c-0.494,0-0.895,0.127-1.197,0.387c-0.304,0.255-0.455,0.59-0.455,1.001c0,0.356,0.094,0.648,0.284,0.869
		c0.191,0.223,0.612,0.479,1.263,0.769c0.784,0.352,1.322,0.68,1.615,0.979c0.294,0.303,0.44,0.703,0.44,1.202
		c0,0.597-0.223,1.089-0.669,1.479c-0.449,0.388-1.066,0.583-1.855,0.583C215.783,64.498,215.177,64.327,214.692,63.985z"/>
	<path d="M221.08,60.585c0,1.033,0.238,1.84,0.717,2.423c0.479,0.582,1.133,0.874,1.965,0.874c0.844,0,1.664-0.312,2.467-0.933v0.72
		c-0.778,0.553-1.647,0.83-2.605,0.83c-0.97,0-1.753-0.348-2.348-1.042c-0.598-0.694-0.896-1.677-0.896-2.944
		c0-1.096,0.312-2.021,0.937-2.773c0.622-0.75,1.434-1.125,2.432-1.125c0.935,0,1.653,0.328,2.153,0.983
		c0.499,0.656,0.748,1.552,0.748,2.688v0.3H221.08z M225.941,59.968c-0.029-0.865-0.234-1.537-0.623-2.019
		c-0.388-0.479-0.919-0.72-1.602-0.72c-0.703,0-1.285,0.236-1.749,0.71c-0.464,0.47-0.748,1.148-0.856,2.029H225.941z"/>
	<path d="M235.603,64.212c-0.353,0.165-0.685,0.25-0.992,0.25c-1.109,0-1.666-0.664-1.666-1.997v-5.05h-1.351v-0.617h1.351v-1.953
		c0.109-0.039,0.221-0.079,0.338-0.118c0.117-0.033,0.23-0.07,0.34-0.109v2.18h1.98v0.617h-1.98v4.964
		c0,0.519,0.082,0.894,0.246,1.127c0.162,0.231,0.441,0.347,0.832,0.347c0.279,0,0.582-0.091,0.905-0.272v0.631H235.603z"/>
	<path d="M240.64,57.501c-0.225-0.16-0.489-0.242-0.793-0.242c-0.593,0-1.089,0.305-1.49,0.917s-0.602,1.479-0.602,2.605v3.532
		h-0.66v-7.519h0.66v1.666h0.029c0.172-0.573,0.443-1.018,0.816-1.336c0.373-0.319,0.802-0.478,1.291-0.478
		c0.281,0,0.531,0.044,0.75,0.133v0.72H240.64z"/>
	<path d="M244.81,65.849c-0.273,0.676-0.575,1.178-0.909,1.505c-0.333,0.328-0.76,0.492-1.284,0.492
		c-0.219,0-0.414-0.033-0.588-0.102v-0.675c0.176,0.069,0.382,0.102,0.617,0.102c0.602,0,1.078-0.415,1.424-1.248l0.697-1.667
		l-2.85-7.46h0.758l2.268,6.124c0.05,0.132,0.084,0.231,0.103,0.3c0.021,0.093,0.042,0.176,0.067,0.25h0.029l0.176-0.507
		l2.422-6.168h0.734L244.81,65.849z"/>
	<path d="M258.402,64.314v-1.505h-0.03c-0.239,0.515-0.589,0.924-1.046,1.229c-0.458,0.307-0.967,0.46-1.523,0.46
		c-0.716,0-1.279-0.201-1.696-0.602c-0.416-0.401-0.624-0.908-0.624-1.521c0-1.311,0.867-2.103,2.605-2.378l2.312-0.345
		c0-1.615-0.605-2.422-1.822-2.422c-0.826,0-1.631,0.334-2.414,0.999v-0.815c0.279-0.22,0.658-0.408,1.135-0.565
		c0.479-0.158,0.928-0.234,1.348-0.234c0.775,0,1.371,0.238,1.796,0.719c0.421,0.48,0.634,1.178,0.634,2.094v4.89h-0.674V64.314z
		 M256.332,60.57c-0.787,0.112-1.343,0.295-1.66,0.546c-0.318,0.252-0.478,0.661-0.478,1.23c0,0.445,0.149,0.812,0.446,1.101
		c0.293,0.289,0.708,0.433,1.234,0.433c0.725,0,1.329-0.269,1.807-0.803c0.48-0.537,0.721-1.227,0.721-2.075v-0.734L256.332,60.57z"
		/>
	<path d="M267.351,63.757c0,1.414-0.309,2.449-0.925,3.105c-0.617,0.656-1.575,0.983-2.879,0.983c-0.723,0-1.47-0.191-2.237-0.573
		v-0.706c0.793,0.441,1.545,0.66,2.254,0.66c2.076,0,3.111-1.096,3.111-3.29v-0.976h-0.029c-0.594,1.024-1.494,1.535-2.711,1.535
		c-0.924,0-1.678-0.336-2.265-1.006c-0.585-0.67-0.878-1.604-0.878-2.805c0-1.2,0.318-2.177,0.949-2.936
		c0.631-0.76,1.463-1.139,2.496-1.139c1.105,0,1.909,0.459,2.408,1.373h0.029v-1.189h0.676V63.757L267.351,63.757z M266.675,59.681
		c0-0.665-0.221-1.24-0.67-1.725c-0.449-0.484-1.034-0.726-1.752-0.726c-0.826,0-1.492,0.312-1.996,0.933s-0.756,1.443-0.756,2.468
		c0,1.028,0.231,1.827,0.693,2.396c0.463,0.571,1.073,0.856,1.831,0.856c0.808,0,1.454-0.262,1.932-0.786
		c0.479-0.524,0.721-1.164,0.721-1.923v-1.493H266.675z"/>
	<path d="M274.252,64.314v-1.505h-0.03c-0.238,0.515-0.59,0.924-1.045,1.229c-0.457,0.307-0.966,0.46-1.524,0.46
		c-0.714,0-1.28-0.201-1.696-0.602c-0.415-0.401-0.623-0.908-0.623-1.521c0-1.311,0.869-2.103,2.604-2.378l2.314-0.345
		c0-1.615-0.607-2.422-1.821-2.422c-0.827,0-1.633,0.334-2.416,0.999v-0.815c0.279-0.22,0.66-0.408,1.136-0.565
		s0.925-0.234,1.349-0.234c0.772,0,1.371,0.238,1.794,0.719c0.423,0.48,0.634,1.178,0.634,2.094v4.89h-0.675V64.314z M272.181,60.57
		c-0.785,0.112-1.34,0.295-1.658,0.546c-0.317,0.252-0.478,0.661-0.478,1.23c0,0.445,0.148,0.812,0.445,1.101
		c0.295,0.289,0.708,0.433,1.236,0.433c0.725,0,1.327-0.269,1.806-0.803c0.479-0.537,0.72-1.227,0.72-2.075v-0.734L272.181,60.57z"
		/>
	<path d="M277.518,54.902c-0.146,0-0.275-0.054-0.388-0.16c-0.111-0.107-0.17-0.246-0.17-0.411c0-0.161,0.059-0.292,0.174-0.395
		c0.113-0.099,0.242-0.15,0.384-0.15c0.153,0,0.284,0.048,0.403,0.148c0.113,0.097,0.17,0.229,0.17,0.397
		c0,0.156-0.055,0.29-0.168,0.404C277.812,54.846,277.677,54.902,277.518,54.902z M277.189,64.314v-7.519h0.676v7.519H277.189z"/>
	<path d="M285.383,64.314v-4.375c0-1.807-0.651-2.71-1.952-2.71c-0.723,0-1.32,0.266-1.787,0.796
		c-0.463,0.531-0.697,1.188-0.697,1.972v4.316h-0.674v-7.519h0.674v1.366h0.031c0.549-1.033,1.405-1.549,2.569-1.549
		c0.813,0,1.434,0.271,1.864,0.812c0.434,0.54,0.646,1.312,0.646,2.315v4.574H285.383z"/>
	<path d="M288.785,64.447c-0.168,0-0.307-0.058-0.42-0.174c-0.111-0.114-0.168-0.255-0.168-0.421c0-0.171,0.057-0.313,0.168-0.421
		c0.113-0.111,0.252-0.166,0.42-0.166c0.165,0,0.307,0.055,0.424,0.166c0.117,0.107,0.176,0.25,0.176,0.421
		c0,0.166-0.059,0.307-0.176,0.421C289.091,64.39,288.95,64.447,288.785,64.447z"/>
</g>
<g enable-background="new    ">
	<path fill="#EDF6F7" d="M134.856,139.816c-0.046,0.821-0.142,1.797-0.282,2.926l-3.172,26.713l-3.312,28.547h-1.833l-1.339-15.507
		c-0.377-4.418-1.41-12.853-3.102-25.305c-1.504-10.854-2.256-17.41-2.256-19.665c0-2.912,0.563-5.592,1.691-8.035
		s3.217-3.664,6.274-3.664c3.146,0,5.308,1.666,6.483,5.002c0.609,1.738,0.914,3.902,0.914,6.484
		C134.926,138.16,134.903,138.994,134.856,139.816z M121.833,222.812c-1.515-1.41-2.271-3.219-2.271-5.426
		c0-2.115,0.752-3.947,2.256-5.497c1.502-1.55,3.357-2.327,5.57-2.327c2.152,0,3.949,0.785,5.386,2.36
		c1.435,1.575,2.155,3.396,2.155,5.464c0,2.067-0.761,3.842-2.275,5.322c-1.516,1.479-3.375,2.219-5.581,2.219
		C125.097,224.928,123.351,224.223,121.833,222.812z"/>
</g>
<g enable-background="new    ">
	<path fill="none" stroke="#EDF6F7" stroke-width="0.9103" d="M134.856,139.816c-0.046,0.821-0.142,1.797-0.282,2.926l-3.172,26.713
		l-3.312,28.547h-1.833l-1.339-15.507c-0.377-4.418-1.41-12.853-3.102-25.305c-1.504-10.854-2.256-17.41-2.256-19.665
		c0-2.912,0.563-5.592,1.691-8.035s3.217-3.664,6.274-3.664c3.146,0,5.308,1.666,6.483,5.002c0.609,1.738,0.914,3.902,0.914,6.484
		C134.926,138.16,134.903,138.994,134.856,139.816z M121.833,222.812c-1.515-1.41-2.271-3.219-2.271-5.426
		c0-2.115,0.752-3.947,2.256-5.497c1.502-1.55,3.357-2.327,5.57-2.327c2.152,0,3.949,0.785,5.386,2.36
		c1.435,1.575,2.155,3.396,2.155,5.464c0,2.067-0.761,3.842-2.275,5.322c-1.516,1.479-3.375,2.219-5.581,2.219
		C125.097,224.928,123.351,224.223,121.833,222.812z"/>
</g>
</svg>
